<?xml version="1.0" encoding="utf-8"?>
<!-- Generator: Adobe Illustrator 19.0.0, SVG Export Plug-In . SVG Version: 6.00 Build 0)  -->
<svg version="1.1" id="Capa_1" xmlns="http://www.w3.org/2000/svg" xmlns:xlink="http://www.w3.org/1999/xlink" x="0px" y="0px"
	 viewBox="0 0 50 50" style="enable-background:new 0 0 50 50;" xml:space="preserve">
<path d="M49.3,39.7L29.2,5.2c-0.9-1.5-2.5-2.5-4.3-2.5s-3.4,0.9-4.3,2.5l-20,34.7c-0.9,1.5-0.9,3.4,0,4.9s2.5,2.5,4.3,2.5H45
	c1.8,0,3.4-0.9,4.3-2.5C50.2,43.1,50.2,41.3,49.3,39.7z M25,41.5c-1.8,0-3.2-1.4-3.2-3.2s1.4-3.2,3.2-3.2c1.8,0,3.2,1.4,3.2,3.2
	S26.7,41.5,25,41.5z M28.2,27.8c0,1.8-1.4,3.2-3.2,3.2s-3.2-1.4-3.2-3.2V13.3c0-0.8,0.7-1.5,1.5-1.5h3.4c0.8,0,1.5,0.7,1.5,1.5
	L28.2,27.8L28.2,27.8z"/>
</svg>
