<?xml version="1.0" encoding="utf-8"?>
<!-- Generator: Adobe Illustrator 19.0.0, SVG Export Plug-In . SVG Version: 6.00 Build 0)  -->
<svg version="1.1" id="Capa_1" xmlns="http://www.w3.org/2000/svg" xmlns:xlink="http://www.w3.org/1999/xlink" x="0px" y="0px"
	 viewBox="-24.5 0.5 50 50" style="enable-background:new -24.5 0.5 50 50;" xml:space="preserve">
<style type="text/css">
	.st0{fill:#808080;}
</style>
<path class="st0" d="M4.4,26.8L4.4,26.8c-1.5,0-2.6,1.2-2.6,2.6c0,1.5,1.2,2.6,2.6,2.6l0,0c1.5,0,2.6-1.2,2.6-2.6
	C7.1,28,5.9,26.8,4.4,26.8z M-3.4,24.2c1.5,0,2.6-1.2,2.6-2.6s-1.2-2.6-2.6-2.6c-1.5,0-2.6,1.2-2.6,2.6S-4.9,24.2-3.4,24.2z
	 M4.4,18.9L4.4,18.9c-1.5,0-2.6,1.2-2.6,2.6s1.2,2.6,2.6,2.6l0,0c1.5,0,2.6-1.2,2.6-2.6S5.9,18.9,4.4,18.9z M7.1,5.8H-6.1V11H7.1
	V5.8z M12.3,24.2c1.5,0,2.6-1.2,2.6-2.6s-1.2-2.6-2.6-2.6c-1.5,0-2.6,1.2-2.6,2.6S10.9,24.2,12.3,24.2z M12.3,32.1
	c1.5,0,2.6-1.2,2.6-2.6c0-1.5-1.2-2.6-2.6-2.6c-1.5,0-2.6,1.2-2.6,2.6C9.7,30.9,10.9,32.1,12.3,32.1z M-3.4,32.1
	c1.5,0,2.6-1.2,2.6-2.6c0-1.5-1.2-2.6-2.6-2.6s-2.6,1.2-2.6,2.6C-6.1,30.9-4.9,32.1-3.4,32.1z M-11.3,40c1.5,0,2.6-1.2,2.6-2.6
	c0-1.5-1.2-2.6-2.6-2.6c-1.5,0-2.6,1.2-2.6,2.6C-14,38.8-12.8,40-11.3,40z M20.2,5.8h-2.6V11h2.6v34.2h-39.5V11h2.6V5.8h-2.6
	c-2.9,0-5.3,2.4-5.3,5.3v34.2c0,2.9,2.4,5.3,5.3,5.3h39.5c2.9,0,5.3-2.4,5.3-5.3V11C25.5,8.1,23.1,5.8,20.2,5.8z M-11.3,32.1
	c1.5,0,2.6-1.2,2.6-2.6c0-1.5-1.2-2.6-2.6-2.6c-1.5,0-2.6,1.2-2.6,2.6C-14,30.9-12.8,32.1-11.3,32.1z M-11.3,24.2
	c1.5,0,2.6-1.2,2.6-2.6s-1.2-2.6-2.6-2.6c-1.5,0-2.6,1.2-2.6,2.6S-12.8,24.2-11.3,24.2z M-3.4,40c1.5,0,2.6-1.2,2.6-2.6
	c0-1.5-1.2-2.6-2.6-2.6c-1.5,0-2.6,1.2-2.6,2.6C-6.1,38.8-4.9,40-3.4,40z M-11.3,11c1.5,0,2.6-1.2,2.6-2.6V3.1
	c0-1.5-1.2-2.6-2.6-2.6c-1.5,0-2.6,1.2-2.6,2.6v5.3C-14,9.8-12.8,11-11.3,11z M12.3,11c1.5,0,2.6-1.2,2.6-2.6V3.1
	c0-1.5-1.2-2.6-2.6-2.6c-1.5,0-2.6,1.2-2.6,2.6v5.3C9.7,9.8,10.9,11,12.3,11z"/>
</svg>
