<svg id="Layer_1" data-name="Layer 1" xmlns="http://www.w3.org/2000/svg" viewBox="0 0 50 50"><defs><style>.cls-1{fill:#fff;}</style></defs><title>dining</title><path class="cls-1" d="M24,8.09V18.6c0,0.56-1.74,1.93-2.9,2.78v3.1a1.52,1.52,0,0,1,1,1.43V42.37a1.52,1.52,0,0,1-1.53,1.52H19.54A1.53,1.53,0,0,1,18,42.37V25.91a1.52,1.52,0,0,1,1-1.43V21.41c-1.23-.85-3.13-2.24-3.13-2.81V8.09a1.33,1.33,0,0,1,1.32-1.52h0.54v11a0.66,0.66,0,0,0,.74.47,0.66,0.66,0,0,0,.74-0.47v-11h1.38v11a0.66,0.66,0,0,0,.74.47,0.66,0.66,0,0,0,.74-0.47v-11h0.23A1.59,1.59,0,0,1,24,8.09Zm8.51-1.26s-4.06,2.65-4.06,9.67v1.39c0,6.92,1.52,10,2.55,11.74V42.76a1.13,1.13,0,0,0,1.13,1.13h0.79a1.13,1.13,0,0,0,1.13-1.13V29a1.59,1.59,0,0,0,0-.31V8.4C34.08,7.54,33.74,6.34,32.52,6.84Z"/></svg>