<svg id="Layer_1" data-name="Layer 1" xmlns="http://www.w3.org/2000/svg" viewBox="0 0 50 50"><defs><style>.cls-1{fill:#fff;}</style></defs><title>gps</title><path class="cls-1" d="M36.67,21h0Zm-1.78-1c-0.32-.51-0.65-1-1-1.6H10.78a2.29,2.29,0,0,0-2.28,2.3h0v2.74a2.29,2.29,0,0,0,2.25,2.33H24.3a0.24,0.24,0,0,1,.24.24v3.76a2.38,2.38,0,0,0,2.38,2.38H33a0.51,0.51,0,0,1,.51.51v8.61a0.51,0.51,0,0,1-.51.51H19.91c-0.43.74-.87,1.46-1.3,2.14a2.12,2.12,0,0,1-.38.44H33a3.09,3.09,0,0,0,3.09-3.09h0V32.62A3.09,3.09,0,0,0,33,29.53H27.12V25.95a2.82,2.82,0,0,0-2.82-2.82H11.08V21H36.67a2.1,2.1,0,0,1-1.78-1v0ZM16.83,29.56A4.83,4.83,0,0,0,12,34.38c0,2,2.81,6.72,4.14,8.83a0.81,0.81,0,0,0,1.38,0c1.33-2.11,4.14-6.79,4.14-8.83A4.83,4.83,0,0,0,16.83,29.56Zm0,7.21A2.17,2.17,0,1,1,19,34.59a2.17,2.17,0,0,1-2.17,2.17h0ZM36.67,5.66a4.83,4.83,0,0,0-4.83,4.83c0,2,2.81,6.72,4.14,8.83a0.81,0.81,0,0,0,1.38,0c1.33-2.11,4.14-6.8,4.14-8.83a4.83,4.83,0,0,0-4.83-4.83h0Zm0,7.21a2.17,2.17,0,1,1,2.17-2.17h0A2.17,2.17,0,0,1,36.67,12.87Z"/></svg>