<svg id="Layer_1" data-name="Layer 1" xmlns="http://www.w3.org/2000/svg" viewBox="0 0 50 50"><defs><style>.cls-1{fill:#fff;}</style></defs><title>lift</title><path class="cls-1" d="M39.1,34.78a2.92,2.92,0,0,0,1.64-1.41,2.5,2.5,0,0,0,.16-2.12l-1.1.31a1.51,1.51,0,0,1-.08,1.25,1.68,1.68,0,0,1-.94.86L10.71,43.15l0.39,1.1,28-9.47h0ZM13.29,18.35A2.61,2.61,0,0,0,15,17a2.92,2.92,0,0,0,.23-2.19,2.74,2.74,0,0,0-1.37-1.72,2.89,2.89,0,0,0-2.23-.27,2.74,2.74,0,0,0-1.76,1.37,2.78,2.78,0,0,0-.23,2.23,2.74,2.74,0,0,0,1.45,1.71A3,3,0,0,0,13.29,18.35Zm-1.17,4a2,2,0,0,1-.2-2A3.34,3.34,0,0,1,13.17,19,2.48,2.48,0,0,1,15,18.67a2.21,2.21,0,0,1,1.56,1.21l3.21,6,6-1.64a1.59,1.59,0,0,1,1.53.43,2,2,0,0,1,.79,1.63v8.53a1.43,1.43,0,0,1-.78,1.41,1.59,1.59,0,0,1-1.56,0A1.45,1.45,0,0,1,25,34.82L24.9,28.56l-6.26,1.88a2.35,2.35,0,0,1-3-1.25L12.1,22.34h0Zm9.7,1.41v-18H20.25V24.06ZM9.22,26.25a1.27,1.27,0,0,1-.12-1.41,1.18,1.18,0,0,1,1.18-.59,1.32,1.32,0,0,1,1.13.9L14.1,30.4a3.28,3.28,0,0,0,3.1,1.85A5.5,5.5,0,0,0,18.37,32l3.44-.94a1.28,1.28,0,0,1,1.41.2,1.13,1.13,0,0,1,.35,1.21,1.35,1.35,0,0,1-1.06.94l-3.6,1a6,6,0,0,1-1.72.23,5.93,5.93,0,0,1-5.32-3.21l-2.65-5.2h0Z"/></svg>