<?xml version="1.0" encoding="utf-8"?>
<!-- Generator: Adobe Illustrator 19.0.0, SVG Export Plug-In . SVG Version: 6.00 Build 0)  -->
<svg version="1.1" id="Layer_1" xmlns="http://www.w3.org/2000/svg" xmlns:xlink="http://www.w3.org/1999/xlink" x="0px" y="0px"
	 viewBox="-12 8 23.7 35" style="enable-background:new -12 8 23.7 35;" xml:space="preserve">
<title>closedLift</title>
<path d="M7.1,35.8l-4.5,1.5c-0.5,0.2-1,0.3-1.5,0.4c-1.4,0.1-2.8-0.5-3.7-1.6l-1.9,2.8c0.5,0.4,1,0.8,1.5,1.1c1.3,0.7,2.8,1,4.2,1
	c0.8,0,1.5-0.2,2.3-0.4l4.7-1.6c0.7-0.2,1.2-0.7,1.3-1.3C9.7,37,9.5,36.4,9,36C8.4,35.6,7.7,35.5,7.1,35.8z"/>
<polygon points="1.4,19.4 1.4,8 -0.7,8 -0.7,22.5 "/>
<polygon points="1.4,30.1 -0.4,32.6 1.4,32.3 "/>
<path d="M-8.1,33.5l2-3l-1.1-1.9c-0.2-0.7-0.9-1.1-1.6-1.1c-0.6,0-1.2,0.3-1.5,0.9c-0.3,0.6-0.2,1.4,0.2,1.9L-8.1,33.5z"/>
<rect x="-1.1" y="9.7" transform="matrix(0.7951 0.6065 -0.6065 0.7951 16.8938 5.8031)" width="2" height="36.5"/>
</svg>
