<svg id="Layer_1" data-name="Layer 1" xmlns="http://www.w3.org/2000/svg" viewBox="0 0 50 50"><defs><style>.cls-1{fill:#fcfcfc;}</style></defs><title>logout</title><path class="cls-1" d="M27.85,29.31a0.67,0.67,0,0,1-.68.68h-4V18.44a1.39,1.39,0,0,0-.72-1.2L16.38,14.1H27.17a0.67,0.67,0,0,1,.68.68v2.68h2.71V12.74a1.36,1.36,0,0,0-1.35-1.36H12.5a1.36,1.36,0,0,0-1.35,1.36V32a1.39,1.39,0,0,0,.72,1.2l10.29,5.36a0.68,0.68,0,0,0,1-.61V32.72H29.2a1.36,1.36,0,0,0,1.35-1.36V23.91H27.85v5.4Zm10.59-9.67L34,15.21a1.39,1.39,0,0,0-2,0,1.43,1.43,0,0,0,0,2s2,2,2,2h-7.7a1.44,1.44,0,0,0-.68.18,1.55,1.55,0,0,0-.34,2.34,1.33,1.33,0,0,0,1,.45h7.7l-2,2a1.45,1.45,0,0,0,0,2,1.37,1.37,0,0,0,2,0l4.4-4.43A1.36,1.36,0,0,0,38.44,19.64Z"/></svg>