<?xml version="1.0" encoding="utf-8"?>
<!-- Generator: Adobe Illustrator 19.0.0, SVG Export Plug-In . SVG Version: 6.00 Build 0)  -->
<svg version="1.1" id="Capa_1" xmlns="http://www.w3.org/2000/svg" xmlns:xlink="http://www.w3.org/1999/xlink" x="0px" y="0px"
	 viewBox="-36.5 1 50 50" style="enable-background:new -36.5 1 50 50;" xml:space="preserve">
<style type="text/css">
	.st0{fill:#1A90C9;}
</style>
<path class="st0" d="M-11.5,1c-10,0-18.1,7.4-18.1,16.5c0,3.7,2.6,9.7,7.8,18.3c3.7,6.1,7.4,11.2,7.5,11.4l2.7,3.7l2.7-3.7
	C-8.7,47.1-5,42-1.3,35.8C4,27.2,6.6,21.2,6.6,17.5C6.6,8.4-1.5,1-11.5,1z M-11.5,26c-5.2,0-9.4-3.8-9.4-8.6c0-4.7,4.2-8.6,9.4-8.6
	s9.4,3.8,9.4,8.6C-2.1,22.2-6.3,26-11.5,26z"/>
</svg>
