<?xml version="1.0" encoding="utf-8"?>
<!-- Generator: Adobe Illustrator 19.0.0, SVG Export Plug-In . SVG Version: 6.00 Build 0)  -->
<svg version="1.1" id="Capa_1" xmlns="http://www.w3.org/2000/svg" xmlns:xlink="http://www.w3.org/1999/xlink" x="0px" y="0px"
	 viewBox="-17 1 50 50" style="enable-background:new -17 1 50 50;" xml:space="preserve">
<style type="text/css">
	.st0{fill:#105D82;}
</style>
<path class="st0" d="M24.4,42.2c-0.5-1-1.5-1.5-2.9-1.5c-0.9,0-1.9,0.2-2.8,0.5L9.2,21.5l6.9-14.4c0,0.1,0,0.2,0,0.3
	c0,0.9,0,1.8,0.3,2.7c0.2,0.7,0.7,1.2,1.2,1.4l0,0c0.3,0.2,0.7,0.2,1.1,0.3c1.2,0,3.3-0.5,3.6-2C22.7,8.1,20.8,7,20,6.5l-0.1-0.1
	c-0.6-0.4-1.3-0.7-1.8-1.3c-0.2-0.1-0.3-0.3-0.4-0.5l0.7-1.5c0.4-0.8,0-1.7-0.7-2.1c-0.8-0.4-1.7,0-2,0.7l-1.4,3
	c-0.2,0.4-0.2,0.8-0.1,1.2L8,19.1L1.7,6c0.1-0.4,0.1-0.8-0.1-1.2l-1.4-3c-0.4-0.8-1.3-1.1-2-0.7c-0.8,0.4-1.1,1.3-0.7,2.1l0.7,1.5
	C-1.9,4.9-2,5.1-2.1,5.2c-0.5,0.5-1.2,0.9-1.8,1.3L-4,6.5C-4.8,7-6.7,8.1-6.4,9.8c0.3,1.5,2.4,2,3.6,2c0.4,0,0.7-0.1,1.1-0.3l0,0
	c0.6-0.3,1-0.8,1.2-1.4c0.3-0.9,0.3-1.8,0.3-2.7c0-0.1,0-0.2,0-0.3l6.9,14.4l-9.5,19.7c-1-0.4-2-0.6-2.8-0.5c-1.4,0-2.5,0.5-2.9,1.5
	c-0.5,1-0.2,2.1,0.7,3.2c0.5,0.6,1.1,1.2,1.9,1.7l-0.5,3.4c0,0.2,0.1,0.3,0.2,0.4c0.1,0.1,0.3,0,0.4-0.1l2.4-2.5
	c0.9,0.3,1.7,0.4,2.5,0.4c1.4,0,2.5-0.5,2.9-1.5c0.5-1,0.2-2.1-0.7-3.2c-0.5-0.7-1.3-1.3-2.2-1.9L8,24l8.7,18.2
	c-0.9,0.5-1.7,1.2-2.2,1.9c-0.9,1.1-1.1,2.3-0.7,3.2c0.5,1,1.5,1.5,2.9,1.5c0.8,0,1.6-0.1,2.5-0.4l2.4,2.5C21.8,51,22,51,22.1,51
	c0.1-0.1,0.2-0.2,0.2-0.4l-0.5-3.4c0.8-0.5,1.4-1.1,1.9-1.7C24.7,44.3,24.9,43.2,24.4,42.2z M18.6,7.3c0.2,0.1,0.4,0.2,0.6,0.3
	c0.5,0.3,0.9,0.5,1.3,0.8c0.4,0.4,0.6,0.7,0.5,1c-0.1,0.3-0.5,0.6-1.2,0.8c-0.4,0.1-1,0.2-1.3,0.1c0,0-0.1,0-0.1,0
	c-0.5-0.2-0.6-0.9-0.7-1.5c0-0.5-0.1-1-0.1-1.4c0-0.2,0-0.5,0-0.7C17.8,6.8,18.2,7.1,18.6,7.3z M-1.5,7.3c0,0.5,0,1-0.1,1.4
	c-0.1,0.6-0.2,1.3-0.7,1.5c0,0-0.1,0-0.1,0c-0.4,0.1-0.9,0-1.3-0.1C-4.5,10-4.9,9.8-5,9.5c0-0.2,0.1-0.6,0.5-1
	c0.4-0.3,0.8-0.6,1.3-0.8C-3,7.6-2.8,7.5-2.6,7.3c0.4-0.3,0.8-0.5,1.1-0.8C-1.5,6.8-1.5,7-1.5,7.3z M0.2,46.4
	c-0.1,0.3-1.7,0.6-3.9-0.5c-2.2-1.1-2.9-2.5-2.8-2.8c0.1-0.3,1.3-0.5,2.9,0.1L-4.5,45l1.9,0.9l0.9-1.8C-0.2,45.1,0.3,46.2,0.2,46.4z
	 M19.7,45.9c-2.2,1.1-3.8,0.8-3.9,0.5c-0.1-0.3,0.4-1.3,1.9-2.3l0.9,1.8l1.9-0.9l-0.9-1.8c1.7-0.6,2.8-0.3,2.9-0.1
	C22.7,43.5,21.9,44.9,19.7,45.9z"/>
</svg>
