<svg id="Layer_1" data-name="Layer 1" xmlns="http://www.w3.org/2000/svg" viewBox="0 0 50 50"><defs><style>.cls-1{fill:#fdfeff;}</style></defs><title>retal</title><path class="cls-1" d="M39.29,19.83l-3.34-1a34.73,34.73,0,0,0-20.1,0l-3.34,1a5.7,5.7,0,0,0-4,5.51v4.87A5.69,5.69,0,0,0,13.65,36l4.18,0.34A8.74,8.74,0,0,0,23.26,35l2.2-1.39a0.83,0.83,0,0,1,.88,0L28.48,35a8.74,8.74,0,0,0,4.77,1.41h0.84L38.2,36a5.7,5.7,0,0,0,5.14-5.73v-4.9A5.71,5.71,0,0,0,39.29,19.83Zm1.25,10.41h0a2.88,2.88,0,0,1-2.6,2.9l-4.11.4A6,6,0,0,1,30,32.6l-2.18-1.4a3.59,3.59,0,0,0-3.88,0l-2.2,1.39a6,6,0,0,1-3.71.9l-4.16-.37a2.88,2.88,0,0,1-2.63-2.9V25.34a2.89,2.89,0,0,1,2-2.79l3.34-1a32,32,0,0,1,18.49,0l3.34,1a2.89,2.89,0,0,1,2,2.79v4.9h0.12ZM18.3,32.47l1.12,0.08a6.89,6.89,0,0,0,.82,0V21.83c-0.67.12-1.3,0.26-1.93,0.42V32.47h0ZM12.83,25.9v3.39a3.23,3.23,0,0,0,3.19,3h0.55v-9.6L15.32,23A3.11,3.11,0,0,0,12.83,25.9Zm-8.47.86V29a2.76,2.76,0,0,0,2.73,2.78V24a2.77,2.77,0,0,0-2.72,2.79h0ZM44.71,24v7.77A2.76,2.76,0,0,0,47.44,29v-2.2A2.76,2.76,0,0,0,44.72,24h0Z"/></svg>