<svg id="Layer_1" data-name="Layer 1" xmlns="http://www.w3.org/2000/svg" viewBox="0 0 50 50"><defs><style>.cls-1{fill:#fff;}</style></defs><title>settings</title><path class="cls-1" d="M29.22,23.91a2.78,2.78,0,0,1,1.85-.46l7.31-7.32L34.29,12,27,19.36a2.76,2.76,0,0,1-.48,1.88ZM21.1,28.18l-4.64,4.65-0.26-.27-1.39,1.12-2.34,3.68,0.6,0.6,3.68-2.34,1.12-1.38L17.61,34l4.65-4.65Zm1.72-8.25a5.7,5.7,0,0,0-7-7l3.23,3.23-0.85,3.17L15,20.12l-3.23-3.23a5.71,5.71,0,0,0,7.29,6.92l0,0,13.3,13.3a2.69,2.69,0,1,0,3.81-3.81ZM34.56,36.68a1,1,0,1,1,1-1A1,1,0,0,1,34.56,36.68Z"/></svg>