<?xml version="1.0" encoding="utf-8"?>
<!-- Generator: Adobe Illustrator 19.0.0, SVG Export Plug-In . SVG Version: 6.00 Build 0)  -->
<svg version="1.1" id="Capa_1" xmlns="http://www.w3.org/2000/svg" xmlns:xlink="http://www.w3.org/1999/xlink" x="0px" y="0px"
	 viewBox="-8.5 0.5 50 50" style="enable-background:new -8.5 0.5 50 50;" xml:space="preserve">
<style type="text/css">
	.st0{fill:#105D82;}
</style>
<path class="st0" d="M-2.2,32.3c0,0-3.3-2,0.7-7.4S4.5,12.4,5.4,8.4l0.8,0.1l1-6c0,0-0.1-3.7,2.7-0.9c2.9,2.8,6.4,7.1,6.4,7.1
	s9.2-3.6,8.6-0.8c-0.6,2.8-1.8,4.9-1.8,4.9l0.4,0.4l-0.9,2l0.9,0.5c0,0-6.2,13.3-5.2,14.3c1,1,16.3,9.7,16.3,10.8
	c0,1.1,4.4,0.8,2.7,6l1,0.5l-0.1,1.8l-3.6,1.4l-13.4-0.1c0,0-0.7-2.3-7.7-2.4c0,0-4.6-0.9-5.1,2l-0.5,0.4l-10.3,0.1l-2.1-1.2v-3.5
	l1.2-0.8l-2-8c0,0-0.1-2.1,2-1.7C-1.3,35.6-1.6,32.8-2.2,32.3z"/>
</svg>
