<?xml version="1.0" encoding="utf-8"?>
<!-- Generator: Adobe Illustrator 19.0.0, SVG Export Plug-In . SVG Version: 6.00 Build 0)  -->
<svg version="1.1" id="Capa_1" xmlns="http://www.w3.org/2000/svg" xmlns:xlink="http://www.w3.org/1999/xlink" x="0px" y="0px"
	 viewBox="-25 0 50 50" style="enable-background:new -25 0 50 50;" xml:space="preserve">
<style type="text/css">
	.st0{fill:#105D82;}
</style>
<path class="st0" d="M-7.2,0c-1.2,0-2.5,0.6-2.5,3.8v42.9c0,2.5,1.4,3.3,2.5,3.3c1.2,0,2.6-0.8,2.6-3.3V3.8C-4.6,0.6-6,0-7.2,0z
	 M-5.8,31l-0.7,2.2h-1.3L-8.5,31v-3.4l0.6-0.9h1.6l0.6,0.9L-5.8,31L-5.8,31z M-4.5,27.3V28h0.7l0.4,2.1h0.6l-0.5-2.7H-4.5z
	 M-11.5,30h0.6l0.4-2.1h0.7v-0.6H-11L-11.5,30z M7.2,0C6,0,4.6,0.6,4.6,3.8v42.9C4.6,49.2,6,50,7.2,50c1.2,0,2.5-0.8,2.5-3.3V3.8
	C9.7,0.6,8.3,0,7.2,0z M8.5,31l-0.7,2.2H6.5L5.8,31v-3.4l0.6-0.9h1.6l0.6,0.9V31z M9.8,27.3V28h0.7l0.4,2.1h0.6l-0.5-2.7H9.8z
	 M2.8,30h0.6L3.8,28h0.7v-0.6H3.2L2.8,30z"/>
</svg>
