<svg id="Layer_1" data-name="Layer 1" xmlns="http://www.w3.org/2000/svg" viewBox="0 0 50 50"><defs><style>.cls-1{fill:#fff;}</style></defs><title>snow</title><path class="cls-1" d="M33.43,14H32.91a9.59,9.59,0,0,0-18.8.44,7.83,7.83,0,0,0-5,7.29,7.69,7.69,0,0,0,7.61,7.74H33.43A7.74,7.74,0,0,0,33.43,14Zm0,12.17H16.67a4.43,4.43,0,0,1-.76-8.78,1.66,1.66,0,0,0,1.37-1.56A6.27,6.27,0,0,1,29.82,16h0a1.66,1.66,0,0,0,2.24,1.52,4.27,4.27,0,0,1,1.4-.24A4.44,4.44,0,0,1,33.43,26.13ZM19.06,31.34a1.51,1.51,0,1,0,1.52,1.51,1.51,1.51,0,0,0-1.52-1.51h0Zm14.8,1.51a1.52,1.52,0,1,0-1.53,1.51h0a1.51,1.51,0,0,0,1.48-1.5h0ZM29,35.5A1.51,1.51,0,1,0,30.5,37,1.51,1.51,0,0,0,29,35.5h0Zm-3.32-4.16a1.51,1.51,0,1,0,1.52,1.51,1.51,1.51,0,0,0-1.52-1.51h0ZM22.34,35.5A1.51,1.51,0,1,0,23.86,37a1.51,1.51,0,0,0-1.52-1.51h0Zm3.32,5A1.51,1.51,0,1,0,27.18,42a1.51,1.51,0,0,0-1.52-1.51h0Zm10-5A1.51,1.51,0,1,0,37.18,37a1.51,1.51,0,0,0-1.52-1.51h0Zm-2.49,5A1.51,1.51,0,1,0,34.69,42a1.51,1.51,0,0,0-1.52-1.51h0Zm-15,0A1.51,1.51,0,1,0,19.7,42a1.51,1.51,0,0,0-1.52-1.51h0Zm-1-3.46A1.52,1.52,0,1,0,15.6,38.5h0.09A1.51,1.51,0,0,0,17.21,37h0Z"/></svg>