<?xml version="1.0" encoding="utf-8"?>
<!-- Generator: Adobe Illustrator 19.0.0, SVG Export Plug-In . SVG Version: 6.00 Build 0)  -->
<svg version="1.1" id="Capa_1" xmlns="http://www.w3.org/2000/svg" xmlns:xlink="http://www.w3.org/1999/xlink" x="0px" y="0px"
	 viewBox="496.5 -0.5 15 15" style="enable-background:new 496.5 -0.5 15 15;" xml:space="preserve">
<path d="M511.5,7c0-1-0.2-2-0.6-2.8c-0.4-0.9-1-1.7-1.7-2.4c-0.7-0.7-1.5-1.2-2.4-1.5c-0.9-0.4-1.9-0.5-2.8-0.5
	c-0.9,0-1.9,0.2-2.8,0.6c-0.9,0.4-1.6,0.9-2.3,1.6c-0.6,0.7-1.2,1.5-1.5,2.3c-0.3,0.9-0.5,1.8-0.5,2.7c0,0.9,0.2,1.8,0.6,2.7
	c0.4,0.8,0.9,1.6,1.6,2.2c0.7,0.6,1.4,1.1,2.3,1.4c0.8,0.3,1.7,0.5,2.6,0.5c0.9,0,1.8-0.2,2.6-0.6c0.8-0.4,1.5-0.9,2.1-1.5
	c0.6-0.6,1.1-1.4,1.4-2.2c0.2-0.5,0.3-1,0.4-1.5c0,0,0,0,0.1,0C511.1,8,511.5,7.6,511.5,7C511.5,7.1,511.5,7,511.5,7L511.5,7
	L511.5,7z M510,9.5c-0.3,0.8-0.8,1.5-1.5,2.1c-0.6,0.6-1.3,1-2.1,1.3c-0.8,0.3-1.6,0.4-2.4,0.4c-0.8,0-1.6-0.2-2.4-0.5
	c-0.8-0.3-1.4-0.8-2-1.4c-0.6-0.6-1-1.3-1.3-2c-0.3-0.8-0.4-1.6-0.4-2.4c0-0.8,0.2-1.6,0.5-2.3c0.3-0.7,0.8-1.4,1.4-1.9
	c0.6-0.5,1.2-1,2-1.2c0.7-0.3,1.5-0.4,2.3-0.4c0.8,0,1.5,0.2,2.2,0.5c0.7,0.3,1.3,0.8,1.8,1.3c0.5,0.5,0.9,1.2,1.2,1.9
	c0.3,0.7,0.4,1.4,0.4,2.2h0c0,0,0,0.1,0,0.1c0,0.5,0.4,0.9,0.8,0.9C510.4,8.5,510.2,9,510,9.5z"/>
</svg>
