<?xml version="1.0" encoding="utf-8"?>
<!-- Generator: Adobe Illustrator 19.0.0, SVG Export Plug-In . SVG Version: 6.00 Build 0)  -->
<svg version="1.1" id="Capa_1" xmlns="http://www.w3.org/2000/svg" xmlns:xlink="http://www.w3.org/1999/xlink" x="0px" y="0px"
	 viewBox="29.6 0.5 50 50" style="enable-background:new 29.6 0.5 50 50;" xml:space="preserve">
<style type="text/css">
	.st0{fill:#E53030;}
</style>
<path class="st0" d="M78.8,22.1l-10.4,9c-0.7,0.6-0.9,1.4-0.7,2.3L70.8,46c0.5,2-1.7,3.6-3.5,2.6l-11.5-6.7c-0.7-0.4-1.7-0.4-2.4,0
	l-11.5,6.7c-1.8,1-4-0.6-3.5-2.6l3.1-12.6c0.2-0.9-0.1-1.7-0.7-2.3l-10.4-9c-1.5-1.4-0.7-3.9,1.3-4.1l13.8-1.3
	c0.9-0.1,1.7-0.6,2-1.4l4.9-11.8c0.8-1.9,3.6-1.9,4.4,0l4.9,11.8c0.4,0.8,1.1,1.4,2,1.4L77.4,18C79.5,18.2,80.3,20.8,78.8,22.1z"/>
</svg>
