<?xml version="1.0" encoding="utf-8"?>
<!-- Generator: Adobe Illustrator 19.0.0, SVG Export Plug-In . SVG Version: 6.00 Build 0)  -->
<svg version="1.1" id="Capa_1" xmlns="http://www.w3.org/2000/svg" xmlns:xlink="http://www.w3.org/1999/xlink" x="0px" y="0px"
	 viewBox="-31.5 1 50 50" style="enable-background:new -31.5 1 50 50;" xml:space="preserve">
<style type="text/css">
	.st0{fill:#E53030;}
</style>
<path class="st0" d="M6.6,49.5c-0.6,0-1.3-0.2-1.9-0.5l-10.8-6.3c-0.2-0.1-0.5-0.1-0.8,0L-17.7,49c-1.3,0.8-2.9,0.7-4.1-0.2
	c-1.2-0.9-1.7-2.3-1.4-3.8l2.9-11.9c0.1-0.3,0-0.5-0.2-0.7l-9.8-8.5c-1.1-1-1.5-2.5-1.1-3.9c0.5-1.4,1.7-2.4,3.2-2.5l13-1.2
	c0.3,0,0.5-0.2,0.6-0.4l4.6-11.1C-9.4,3.4-8,2.5-6.5,2.5c0,0,0,0,0,0c1.5,0,2.9,0.9,3.4,2.3l4.6,11.1c0.1,0.3,0.4,0.4,0.6,0.5
	l13,1.2c1.5,0.1,2.7,1.1,3.2,2.5c0.5,1.4,0.1,2.9-1,3.9l-9.8,8.5c-0.2,0.2-0.3,0.4-0.2,0.7L10.2,45c0.3,1.5-0.2,2.9-1.4,3.8
	C8.1,49.3,7.4,49.5,6.6,49.5z M-6.5,39.7c0.6,0,1.3,0.2,1.9,0.5l10.8,6.3c0.4,0.2,0.7,0,0.9,0c0.1-0.1,0.4-0.4,0.3-0.8L4.4,33.8
	c-0.3-1.4,0.1-2.7,1.2-3.6l9.8-8.5c0.3-0.2,0.2-0.6,0.2-0.7c0-0.1-0.2-0.5-0.7-0.5l-13-1.2c-1.3-0.1-2.5-1-3.1-2.2L-5.8,5.9
	C-6,5.5-6.4,5.4-6.5,5.4h0c-0.2,0-0.5,0-0.7,0.5L-11.8,17c-0.5,1.2-1.7,2.1-3.1,2.3l-13,1.2c-0.4,0-0.6,0.4-0.6,0.5
	c0,0.1-0.1,0.5,0.2,0.8l9.8,8.5c1,0.9,1.5,2.3,1.2,3.6l-2.9,11.9c-0.1,0.4,0.2,0.7,0.3,0.7c0.1,0.1,0.4,0.3,0.9,0l10.8-6.3
	C-7.8,39.9-7.1,39.7-6.5,39.7z"/>
</svg>
