<svg id="Layer_1" data-name="Layer 1" xmlns="http://www.w3.org/2000/svg" viewBox="0 0 50 50"><defs><style>.cls-1{fill:#fbf9fb;}</style></defs><title>temp</title><path class="cls-1" d="M30,28V21.58H27.69V29.2l0.56,0.34a6,6,0,0,1,2.9,5.11,6.15,6.15,0,0,1-12.29,0,6,6,0,0,1,2.9-5.11l0.56-.34V11.89a2.69,2.69,0,0,1,5.37,0v2.78H30V11.89a5,5,0,0,0-10.08,0V28a8.21,8.21,0,0,0-3.47,6.7,8.5,8.5,0,0,0,17,0A8.21,8.21,0,0,0,30,28Zm-2.36-8.68H30V17H27.69v2.3h0Zm-3.86-6.53V31.37a3.77,3.77,0,1,0,2.36,0V12.75H23.82Z"/></svg>