<svg id="Layer_1" data-name="Layer 1" xmlns="http://www.w3.org/2000/svg" viewBox="0 0 50 50"><defs><style>.cls-1{fill:#fff;}</style></defs><title>ticket-01</title><path class="cls-1" d="M38.25,8.33A4.57,4.57,0,0,0,36,9.71l-1,1a1,1,0,0,1-1.34,0l-1-1a4.73,4.73,0,0,0-2.8-1.38,4.73,4.73,0,0,0-2.76,1.38l-1.06,1a1,1,0,0,1-1.35,0l-1.06-1a4.81,4.81,0,0,0-2.74-1.38,4.81,4.81,0,0,0-2.76,1.38l-1.06,1a1,1,0,0,1-1.35,0l-1.06-1c-0.09-.06-1.44-1.38-2.34-1.38S11,9.64,11,10.76V39.22c0,1.12.37,2.43,1.34,2.43,0.82,0,2.13-1.24,2.27-1.37l1.08-1a1,1,0,0,1,1.36,0l1.06,1a4.81,4.81,0,0,0,2.76,1.38,4.81,4.81,0,0,0,2.76-1.38l1.06-1a1,1,0,0,1,1.35,0l1.06,1a4.81,4.81,0,0,0,2.76,1.38,4.81,4.81,0,0,0,2.76-1.38l1.06-1a1,1,0,0,1,1.35,0l1.06,1a4.4,4.4,0,0,0,2.15,1.39c0.8,0,1.21-.86,1.21-2.43V10.76C39.47,9.19,39.06,8.33,38.25,8.33Zm-5,25h-7V30.47h7v2.86Zm0-7H17.4v-2.7H33.25v2.71h0Zm0-6.85H17.4V16.63H33.25v2.85Z"/></svg>