<svg id="Layer_1" data-name="Layer 1" xmlns="http://www.w3.org/2000/svg" viewBox="0 0 50 50"><defs><style>.cls-1{fill:#fdfeff;}</style></defs><title>Webcam</title><path class="cls-1" d="M43.89,32.24A1.8,1.8,0,0,0,43.36,31L43,30.62a3.67,3.67,0,0,1-1.55.6l-12,1.39,6.1,6.11a1.79,1.79,0,0,0,2.53,0l5.2-5.21A1.8,1.8,0,0,0,43.89,32.24ZM42,27.87a1,1,0,0,0-.24-1L26.61,11.67A7.24,7.24,0,0,0,16,21.42l-3,3A3.66,3.66,0,0,0,12,26.09H11.67a3.13,3.13,0,0,0-2.83-1.8h-3a0.81,0.81,0,0,0-.81.81v4.68a0.81,0.81,0,0,0,.81.81h3a3.14,3.14,0,0,0,2.83-1.8h0.71a3.64,3.64,0,0,0,.61.84h0a3.67,3.67,0,0,0,5.19,0h0l2.92-2.92,2.39,2.44a3.82,3.82,0,0,0,2.7,1.12h0.44l14.45-1.69A1,1,0,0,0,42,27.87Zm-25.25.3a1.62,1.62,0,1,1,0-2.29h0a1.66,1.66,0,0,1,0,2.3h0ZM44.4,35.65l-0.57-.57L39.7,39.2l0.57,0.57a1.79,1.79,0,0,0,2.53,0h0l1.59-1.59A1.8,1.8,0,0,0,44.4,35.65Z"/></svg>