<svg id="Layer_1" data-name="Layer 1" xmlns="http://www.w3.org/2000/svg" viewBox="0 0 50 50"><defs><style>.cls-1{fill:#fdfeff;}</style></defs><title>wind</title><path class="cls-1" d="M9.08,26.76H35.5a6.76,6.76,0,0,0,0-13.52A7,7,0,0,0,30.87,15,6.25,6.25,0,0,0,29,19.74a1.63,1.63,0,0,0,3.26,0,3.28,3.28,0,0,1,.84-2.45,3.73,3.73,0,0,1,2.32-.88h0a3.59,3.59,0,0,1,0,7.18H9.08a1.59,1.59,0,0,0-.25,3.17H9.08Zm0-6.22H21.67a6.86,6.86,0,0,0,6.95-6.76A6.86,6.86,0,0,0,21.69,7,7,7,0,0,0,17,8.76,6.25,6.25,0,0,0,15.2,13.5a1.63,1.63,0,1,0,3.26,0A3.28,3.28,0,0,1,19.3,11a3.73,3.73,0,0,1,2.34-.87h0a3.59,3.59,0,1,1,0,7.18H9.08a1.59,1.59,0,0,0,0,3.19h0Zm26.42,9H9.08a1.59,1.59,0,0,0-.25,3.17H35.5a3.59,3.59,0,1,1,0,7.18h0A3.73,3.73,0,0,1,33.13,39a3.28,3.28,0,0,1-.84-2.45,1.63,1.63,0,1,0-3.26,0h0a6.25,6.25,0,0,0,1.84,4.74A7,7,0,0,0,35.45,43h0.06a6.76,6.76,0,1,0,0-13.5v0Z"/></svg>