<?xml version="1.0" encoding="utf-8"?>
<!-- Generator: Adobe Illustrator 19.0.0, SVG Export Plug-In . SVG Version: 6.00 Build 0)  -->
<svg version="1.1" id="Layer_1" xmlns="http://www.w3.org/2000/svg" xmlns:xlink="http://www.w3.org/1999/xlink" x="0px" y="0px"
	 viewBox="0 0 290.7 54.2" style="enable-background:new 0 0 290.7 54.2;" xml:space="preserve">
<style type="text/css">
	.st0{fill:#FFFFFF;}
	.st1{fill:#446A71;}
	.st2{fill:#93C5CE;}
	.st3{fill:#99C5CE;}
	.st4{fill:#6BA0AC;}
	.st5{fill:#86C0D4;}
	.st6{fill:#B4D6E2;}
	.st7{fill:#9AC9D8;}
	.st8{fill:none;}
</style>
<polygon class="st0" points="279.1,18.9 269.1,33.6 273.9,33.6 283.9,18.9 "/>
<polygon class="st0" points="285.8,18.9 275.8,33.6 280.6,33.6 290.6,18.9 "/>
<g>
	<polygon class="st0" points="211.4,18.9 207.3,18.9 208.2,28.2 208.2,28.2 	"/>
	<path class="st0" d="M215.3,32.2c-1-1.2-1.3-2.7-1-4.5l0.5-2.7c0.4-2,1.2-3.6,2.4-4.7c0.7-0.7,1.6-1.2,2.6-1.4h-5.1l-5.5,14.7h7.9
		C216.5,33.3,215.9,32.8,215.3,32.2z"/>
	<path class="st0" d="M219.4,22.3c-0.5,0.7-0.8,1.6-1,2.7l-0.5,2.7c-0.2,1.1-0.1,2,0.2,2.7c0.4,0.7,1,1,1.9,1c0.7,0,1.4-0.3,1.9-1
		s0.9-1.6,1.1-2.7l0.5-2.7c0.2-1.1,0.1-2-0.3-2.7c-0.4-0.7-1.1-1-1.9-1C220.5,21.3,219.9,21.6,219.4,22.3z"/>
	<polygon class="st0" points="205.2,25 205.1,25 201.6,33.6 206,33.6 	"/>
	<path class="st0" d="M256.1,19.6c0.5-0.3,1.1-0.6,1.8-0.8h-3.5l-5.4,7.4l2.5,7.4h4.1c-0.5-0.2-0.9-0.4-1.4-0.7
		c-1.1-0.8-1.4-1.9-1.1-3.5l0-0.1h3.4c-0.2,0.8,0,1.3,0.4,1.6c0.4,0.3,1,0.4,1.7,0.4c0.4,0,0.8-0.1,1.2-0.4c0.4-0.2,0.6-0.5,0.7-0.9
		c0.1-0.6,0-1.1-0.3-1.4c-0.3-0.3-0.9-0.6-1.7-1c-1.6-0.6-2.9-1.3-3.6-2.1c-0.8-0.8-1.1-1.8-0.8-3C254.3,21.3,255,20.3,256.1,19.6z"
		/>
	<path class="st0" d="M230,18.9h-6.4c0.9,0.3,1.7,0.8,2.3,1.6c1,1.2,1.4,2.7,1,4.5l-0.5,2.7c-0.4,2-1.2,3.5-2.4,4.7
		c-0.6,0.6-1.3,1-2,1.3h5.2L230,18.9z"/>
	<polygon class="st0" points="200.8,18.9 201.1,28.1 201.1,28.1 204.9,18.9 	"/>
	<polygon class="st0" points="245.8,27.9 244.7,27.9 243.6,33.6 247.5,33.6 	"/>
	<polygon class="st0" points="197.5,18.9 193.7,18.9 186.6,33.6 199.2,33.6 	"/>
	<path class="st0" d="M261.8,18.9c0.7,0.2,1.3,0.5,1.8,1c0.9,0.8,1.2,1.9,0.9,3.4l0,0.1h-3.4c0.1-0.6,0-1.1-0.3-1.4
		c-0.3-0.4-0.8-0.5-1.4-0.5c-0.4,0-0.8,0.1-1.2,0.4c-0.4,0.3-0.6,0.6-0.7,0.9c-0.1,0.6,0,1,0.3,1.3c0.3,0.3,1.1,0.6,2.2,1.1
		c1.5,0.5,2.6,1.2,3.3,2c0.7,0.8,0.9,1.9,0.6,3.2c-0.3,1.3-0.9,2.3-2,3c-0.4,0.2-0.8,0.4-1.2,0.6h6.3l10-14.7H261.8z"/>
	<path class="st0" d="M232.1,25.4h2c0.5,0,1-0.2,1.4-0.5c0.4-0.3,0.7-0.8,0.8-1.4c0.1-0.7,0.1-1.2-0.2-1.5c-0.3-0.4-0.7-0.5-1.3-0.5
		h-2L232.1,25.4z"/>
	<path class="st0" d="M234.8,32.7c0-0.5,0.1-1,0.2-1.5l0.2-0.9c0.2-0.8,0.1-1.3-0.1-1.7c-0.2-0.4-0.7-0.5-1.4-0.5h-2.1l-1.1,5.5h4.4
		C234.8,33.4,234.8,33.1,234.8,32.7z"/>
	<polygon class="st0" points="249.8,18.9 246.5,18.9 245.4,24.7 246.4,24.7 	"/>
	<path class="st0" d="M243.1,18.9h-7c1.2,0.1,2.2,0.5,2.9,1.2c0.8,0.8,1.1,1.9,0.9,3.3c-0.2,0.8-0.5,1.5-1,2.1c-0.5,0.5-1.1,1-2,1.3
		c0.8,0.3,1.3,0.7,1.6,1.3c0.3,0.6,0.3,1.4,0.2,2.2l-0.2,0.9c-0.1,0.4-0.1,0.9-0.1,1.4c0,0.5,0.1,0.8,0.3,1.1h1.5L243.1,18.9z"/>
</g>
<g>
	<path class="st0" d="M73,28.2h-5.8l-3.2,5.4h-1.3l9.3-15.3h0.8l2.3,15.3h-1.2L73,28.2z M72.8,27.2l-0.4-3c-0.2-1.7-0.4-3.1-0.4-4.2
		c-0.2,0.4-0.5,0.9-0.7,1.4c-0.3,0.5-1.4,2.4-3.5,5.9H72.8z"/>
	<path class="st0" d="M90.4,24.4c0,1.8-0.4,3.4-1.2,4.8c-0.8,1.4-2,2.5-3.4,3.3c-1.4,0.7-3.1,1.1-5,1.1H77l3.5-15.2h3.4
		c2.1,0,3.7,0.5,4.8,1.5S90.4,22.4,90.4,24.4z M80.7,32.7c1.7,0,3.2-0.3,4.5-1c1.3-0.7,2.3-1.6,3-2.9c0.7-1.3,1-2.7,1-4.3
		c0-3.5-1.8-5.2-5.4-5.2h-2.3l-3.1,13.3H80.7z"/>
	<path class="st0" d="M96.2,32.1c0.4-0.8,0.9-1.6,1.4-2.6l6.5-11.1h1.3l-9,15.2h-1l-2.1-15.2h1.1l1.3,9.9C96,29.8,96.1,31,96.2,32.1
		L96.2,32.1z"/>
	<path class="st0" d="M112.7,33.6h-8.2l3.5-15.2h8.2l-0.2,1h-7.1l-1.3,5.8h6.7l-0.2,1h-6.6l-1.5,6.5h7.1L112.7,33.6z"/>
	<path class="st0" d="M127.4,33.6h-1l-5.8-13.4h-0.1c-0.2,1-0.4,2-0.5,2.8c-0.2,0.9-1,4.4-2.4,10.5h-1.1l3.5-15.2h0.9l5.9,13.5h0.1
		c0.2-1.2,0.5-2.7,0.8-4.3l2.1-9.2h1.1L127.4,33.6z"/>
	<path class="st0" d="M135.8,33.6h-1.2l3.3-14.3H133l0.2-1h11l-0.2,1h-5L135.8,33.6z"/>
	<path class="st0" d="M157.8,18.4l-2.3,10.2c-0.4,1.9-1.2,3.2-2.2,4c-1,0.8-2.5,1.2-4.2,1.2c-3.3,0-5-1.4-5-4.2
		c0-0.6,0.1-1.3,0.3-2.1l2.1-9.2h1.2l-2.2,9.4c-0.2,0.6-0.2,1.3-0.2,1.9c0,2.1,1.3,3.2,3.9,3.2c1.5,0,2.6-0.3,3.5-1
		c0.8-0.7,1.4-1.8,1.8-3.3l2.3-10.2H157.8z"/>
	<path class="st0" d="M161.3,27l-1.5,6.6h-1.2l3.5-15.2h3.4c3.2,0,4.9,1.3,4.9,3.8c0,1.3-0.4,2.3-1.2,3.2c-0.8,0.8-1.8,1.4-3.2,1.6
		c1.5,4.1,2.3,6.4,2.5,6.7h-1.3l-2.4-6.6H161.3z M161.5,26h2.8c1.6,0,2.8-0.3,3.6-1c0.8-0.7,1.2-1.6,1.2-2.9c0-1.9-1.2-2.8-3.7-2.8
		h-2.4L161.5,26z"/>
	<path class="st0" d="M179.8,33.6h-8.2l3.5-15.2h8.2l-0.2,1H176l-1.3,5.8h6.7l-0.2,1h-6.6l-1.5,6.5h7.1L179.8,33.6z"/>
</g>
<g>
	<path class="st0" d="M213.9,46.8c0,1-0.4,1.8-1.1,2.3c-0.7,0.6-1.7,0.8-3,0.8s-2.3-0.2-3.1-0.6v-1.7c0.5,0.2,1,0.4,1.6,0.6
		c0.6,0.1,1.1,0.2,1.6,0.2c0.7,0,1.3-0.1,1.6-0.4c0.3-0.3,0.5-0.6,0.5-1.1c0-0.4-0.2-0.8-0.5-1.1s-1-0.6-1.9-1
		c-1-0.4-1.7-0.9-2.1-1.4s-0.6-1.2-0.6-1.9c0-0.9,0.3-1.7,1-2.2c0.7-0.5,1.5-0.8,2.7-0.8c1.1,0,2.1,0.2,3.2,0.7l-0.6,1.5
		c-1-0.4-1.9-0.6-2.6-0.6c-0.6,0-1,0.1-1.3,0.4c-0.3,0.3-0.5,0.6-0.5,1c0,0.3,0.1,0.5,0.2,0.7c0.1,0.2,0.3,0.4,0.6,0.6
		c0.3,0.2,0.8,0.4,1.5,0.7c0.8,0.3,1.4,0.7,1.8,1c0.4,0.3,0.7,0.6,0.8,1C213.8,45.8,213.9,46.2,213.9,46.8z"/>
	<path class="st0" d="M217.5,45.3l1-1.3l2.5-2.7h2.1l-3.4,3.6l3.6,4.8h-2.1l-2.7-3.7l-1,0.8v2.9h-1.8V37.9h1.8v5.8L217.5,45.3
		L217.5,45.3z"/>
	<path class="st0" d="M224.6,39.1c0-0.3,0.1-0.6,0.3-0.7c0.2-0.2,0.4-0.3,0.7-0.3c0.3,0,0.6,0.1,0.7,0.3c0.2,0.2,0.3,0.4,0.3,0.7
		c0,0.3-0.1,0.5-0.3,0.7s-0.4,0.3-0.7,0.3c-0.3,0-0.6-0.1-0.7-0.3C224.7,39.7,224.6,39.4,224.6,39.1z M226.5,49.8h-1.8v-8.4h1.8
		V49.8z"/>
	<path class="st0" d="M235.1,45.3v4.4h-1.8V38.6h3.1c1.4,0,2.5,0.3,3.2,0.8c0.7,0.5,1,1.3,1,2.4c0,1.4-0.7,2.4-2.2,3l3.1,4.9h-2.1
		l-2.7-4.4H235.1z M235.1,43.8h1.3c0.8,0,1.5-0.2,1.8-0.5c0.4-0.3,0.6-0.8,0.6-1.4c0-0.6-0.2-1.1-0.6-1.4c-0.4-0.3-1-0.4-1.9-0.4
		h-1.2V43.8z"/>
	<path class="st0" d="M246.7,49.9c-1.3,0-2.3-0.4-3.1-1.1c-0.7-0.8-1.1-1.8-1.1-3.2c0-1.4,0.3-2.5,1-3.2c0.7-0.8,1.6-1.2,2.8-1.2
		c1.1,0,2,0.3,2.6,1c0.6,0.7,1,1.6,1,2.8v1h-5.6c0,0.8,0.2,1.4,0.7,1.9s1,0.7,1.8,0.7c0.5,0,1,0,1.4-0.1s0.9-0.3,1.4-0.5v1.5
		c-0.4,0.2-0.9,0.4-1.3,0.4C247.8,49.9,247.3,49.9,246.7,49.9z M246.4,42.6c-0.6,0-1,0.2-1.4,0.5c-0.3,0.4-0.5,0.9-0.6,1.6h3.8
		c0-0.7-0.2-1.2-0.5-1.6C247.4,42.7,247,42.6,246.4,42.6z"/>
	<path class="st0" d="M257.7,47.4c0,0.8-0.3,1.5-0.9,1.9s-1.5,0.7-2.6,0.7c-1.1,0-2-0.2-2.7-0.5v-1.5c1,0.5,1.9,0.7,2.8,0.7
		c1.1,0,1.7-0.3,1.7-1c0-0.2-0.1-0.4-0.2-0.5c-0.1-0.1-0.3-0.3-0.6-0.4c-0.3-0.2-0.7-0.3-1.2-0.5c-1-0.4-1.6-0.8-2-1.1
		c-0.3-0.4-0.5-0.9-0.5-1.5c0-0.7,0.3-1.3,0.9-1.7c0.6-0.4,1.4-0.6,2.4-0.6c1,0,1.9,0.2,2.8,0.6l-0.6,1.3c-0.9-0.4-1.7-0.6-2.3-0.6
		c-0.9,0-1.4,0.3-1.4,0.8c0,0.3,0.1,0.5,0.4,0.7s0.8,0.4,1.6,0.8c0.7,0.3,1.2,0.5,1.5,0.7s0.5,0.5,0.7,0.8
		C257.6,46.6,257.7,47,257.7,47.4z"/>
	<path class="st0" d="M267.1,45.5c0,1.4-0.4,2.4-1.1,3.2c-0.7,0.8-1.7,1.2-2.9,1.2c-0.8,0-1.5-0.2-2.1-0.5c-0.6-0.4-1.1-0.9-1.4-1.5
		c-0.3-0.7-0.5-1.4-0.5-2.3c0-1.4,0.3-2.4,1-3.2s1.7-1.1,3-1.1c1.2,0,2.2,0.4,2.9,1.2C266.7,43.2,267.1,44.2,267.1,45.5z M261,45.5
		c0,1.9,0.7,2.9,2.2,2.9c1.4,0,2.1-1,2.1-2.9c0-1.9-0.7-2.9-2.1-2.9c-0.8,0-1.3,0.2-1.6,0.7S261,44.6,261,45.5z"/>
	<path class="st0" d="M273.4,41.2c0.4,0,0.7,0,0.9,0.1l-0.2,1.7c-0.3-0.1-0.5-0.1-0.8-0.1c-0.7,0-1.3,0.2-1.7,0.7
		c-0.4,0.5-0.7,1.1-0.7,1.8v4.4h-1.8v-8.4h1.4l0.2,1.5h0.1c0.3-0.5,0.6-0.9,1.1-1.2C272.4,41.4,272.9,41.2,273.4,41.2z"/>
	<path class="st0" d="M279,48.5c0.4,0,0.9-0.1,1.3-0.2v1.3c-0.2,0.1-0.5,0.2-0.8,0.2c-0.3,0.1-0.6,0.1-1,0.1c-1.7,0-2.5-0.9-2.5-2.7
		v-4.5h-1.1v-0.8l1.2-0.7l0.6-1.8h1.1v1.9h2.4v1.4h-2.4v4.5c0,0.4,0.1,0.8,0.3,1S278.7,48.5,279,48.5z"/>
</g>
<g>
	<polygon class="st1" points="23.8,27.8 25.6,33.5 15.7,33.6 16,33.3 23.6,27.5 	"/>
	<polygon class="st2" points="23.6,27.5 16,33.3 15.9,33.2 18.6,27.3 20.7,22.8 	"/>
	<polygon class="st3" points="20.7,22.8 18.6,27.3 7.8,20.9 12.3,18.2 17.2,22.2 	"/>
	<polygon class="st4" points="9.3,27.5 4.4,23.3 18.6,27.3 15.9,33.2 	"/>
	<polygon class="st5" points="18.6,27.3 4.4,23.3 4.1,23.1 7.8,20.9 	"/>
	<polygon class="st5" points="21.6,15.4 17.2,22.2 12.3,18.2 	"/>
	<polygon class="st6" points="12.8,11.4 22.5,15.6 12.3,18.2 10.4,14.9 	"/>
	<polygon class="st0" points="16,33.3 15.7,33.6 15.9,33.2 	"/>
	<polygon class="st5" points="15.9,33.2 15.7,33.6 -0.1,33.6 0.1,33.1 9.3,27.5 	"/>
	<polygon class="st5" points="10.4,14.9 12.3,18.2 4.1,23.1 	"/>
	<polygon class="st7" points="9.3,27.5 0.1,33.1 4.1,23.1 4.4,23.3 	"/>
	<g>
		<polygon class="st8" points="15.7,33.6 -0.1,33.6 0.1,33.1 4.1,23.1 7.9,21.1 10.4,14.9 12.8,13.3 18.2,15.9 17.2,22.2 20.7,22.8 
			23.6,27.5 23.8,27.8 25.6,33.5 		"/>
		<line class="st8" x1="10.4" y1="14.9" x2="12.3" y2="18.2"/>
		<polyline class="st8" points="20.7,22.8 18.6,27.3 15.9,33.2 15.7,33.6 		"/>
		<line class="st8" x1="7.9" y1="21.1" x2="18.6" y2="27.3"/>
		<line class="st8" x1="12.3" y1="18.2" x2="5.1" y2="20.2"/>
		<line class="st8" x1="12.3" y1="18.2" x2="20.1" y2="17.2"/>
		<polyline class="st8" points="23.8,27.3 23.6,27.5 16,33.3 15.7,33.6 		"/>
		<polyline class="st8" points="4.1,23.1 4.4,23.3 9.3,27.5 15.9,33.2 16,33.3 		"/>
		<polyline class="st8" points="-0.1,33.2 0.1,33.1 9.3,27.5 9.3,27.5 		"/>
		<line class="st8" x1="18.6" y1="27.3" x2="4.4" y2="23.3"/>
		<line class="st8" x1="17.2" y1="22.2" x2="12.3" y2="18.2"/>
	</g>
</g>
<polygon class="st1" points="47.1,24.8 49.9,33.5 34.8,33.6 35.3,33.2 46.8,24.3 "/>
<polygon class="st2" points="46.8,24.3 35.3,33.2 35,33 39.3,24 42.4,17.3 "/>
<polygon class="st3" points="42.4,17.3 39.3,24 22.9,14.7 29.6,10.3 37.2,16.3 "/>
<polygon class="st4" points="25.1,24.4 17.6,18 39.3,24 35,33 "/>
<polygon class="st5" points="39.3,24 17.6,18 17.2,17.7 22.9,14.7 "/>
<polygon class="st5" points="34.6,7.6 37.2,16.3 29.6,10.3 "/>
<polygon class="st6" points="30.4,0 34.6,7.6 29.6,10.3 26.8,5.3 "/>
<polygon class="st0" points="35.3,33.2 34.8,33.6 35,33 "/>
<polygon class="st5" points="35,33 34.8,33.6 10.8,33.6 11.1,32.9 25.1,24.4 "/>
<polygon class="st5" points="26.8,5.3 29.6,10.3 22.9,14.7 "/>
<polygon class="st7" points="25.1,24.4 11.1,32.9 17.2,17.7 17.6,18 "/>
<g>
	<polygon class="st8" points="34.8,33.6 10.8,33.6 11.1,32.9 17.2,17.7 22.9,14.7 26.8,5.3 30.4,0 34.6,7.6 37.2,16.3 42.4,17.3 
		46.8,24.3 47.1,24.8 49.9,33.5 	"/>
	<line class="st8" x1="26.8" y1="5.3" x2="29.6" y2="10.3"/>
	<polyline class="st8" points="42.4,17.3 39.3,24 35,33 34.8,33.6 	"/>
	<line class="st8" x1="22.9" y1="14.7" x2="39.3" y2="24"/>
	<line class="st8" x1="29.6" y1="10.3" x2="22.9" y2="14.7"/>
	<line class="st8" x1="29.6" y1="10.3" x2="34.6" y2="7.6"/>
	<polyline class="st8" points="47.1,24.1 46.8,24.3 35.3,33.2 34.8,33.6 	"/>
	<polyline class="st8" points="17.2,17.7 17.6,18 25.1,24.4 35,33 35.3,33.2 	"/>
	<polyline class="st8" points="10.8,33.1 11.1,32.9 25.1,24.4 25.1,24.4 	"/>
	<line class="st8" x1="39.3" y1="24" x2="17.6" y2="18"/>
	<line class="st8" x1="37.2" y1="16.3" x2="29.6" y2="10.3"/>
</g>
</svg>
