<?xml version="1.0" encoding="utf-8"?>
<!-- Generator: Adobe Illustrator 19.0.0, SVG Export Plug-In . SVG Version: 6.00 Build 0)  -->
<svg version="1.1" id="Layer_1" xmlns="http://www.w3.org/2000/svg" xmlns:xlink="http://www.w3.org/1999/xlink" x="0px" y="0px"
	 viewBox="0 0 50 33.6" style="enable-background:new 0 0 50 33.6;" xml:space="preserve">
<style type="text/css">
	.st0{fill:#456C74;}
	.st1{fill:#96CDD7;}
	.st2{fill:#9CCCD6;}
	.st3{fill:#6DA6B3;}
	.st4{fill:#88C8DE;}
	.st5{fill:#B6DCE9;}
	.st6{fill:#FFFFFF;}
	.st7{fill:#9DD1E0;}
	.st8{fill:none;}
</style>
<g>
	<polygon class="st0" points="23.9,27.8 25.7,33.5 15.8,33.6 16.1,33.3 23.7,27.5 	"/>
	<polygon class="st1" points="23.7,27.5 16.1,33.3 16,33.2 18.7,27.3 20.8,22.8 	"/>
	<polygon class="st2" points="20.8,22.8 18.7,27.3 7.9,20.9 12.4,18.2 17.3,22.2 	"/>
	<polygon class="st3" points="9.4,27.5 4.5,23.3 18.7,27.3 16,33.2 	"/>
	<polygon class="st4" points="18.7,27.3 4.5,23.3 4.2,23.1 7.9,20.9 	"/>
	<polygon class="st4" points="21.7,15.4 17.3,22.2 12.4,18.2 	"/>
	<polygon class="st5" points="12.9,11.4 22.6,15.6 12.4,18.2 10.5,14.9 	"/>
	<polygon class="st6" points="16.1,33.3 15.8,33.6 16,33.2 	"/>
	<polygon class="st4" points="16,33.2 15.8,33.6 0,33.6 0.2,33.1 9.4,27.5 	"/>
	<polygon class="st4" points="10.5,14.9 12.4,18.2 4.2,23.1 	"/>
	<polygon class="st7" points="9.4,27.5 0.2,33.1 4.2,23.1 4.5,23.3 	"/>
	<g>
		<polygon class="st8" points="15.8,33.6 0,33.6 0.2,33.1 4.2,23.1 8,21.1 10.5,14.9 12.9,13.3 18.3,15.9 17.3,22.2 20.8,22.8 
			23.7,27.5 23.9,27.8 25.7,33.5 		"/>
		<line class="st8" x1="10.5" y1="14.9" x2="12.4" y2="18.2"/>
		<polyline class="st8" points="20.8,22.8 18.7,27.3 16,33.2 15.8,33.6 		"/>
		<line class="st8" x1="8" y1="21.1" x2="18.7" y2="27.3"/>
		<line class="st8" x1="12.4" y1="18.2" x2="5.2" y2="20.2"/>
		<line class="st8" x1="12.4" y1="18.2" x2="20.2" y2="17.2"/>
		<polyline class="st8" points="23.9,27.3 23.7,27.5 16.1,33.3 15.8,33.6 		"/>
		<polyline class="st8" points="4.2,23.1 4.5,23.3 9.4,27.5 16,33.2 16.1,33.3 		"/>
		<polyline class="st8" points="0,33.2 0.2,33.1 9.4,27.5 9.4,27.5 		"/>
		<line class="st8" x1="18.7" y1="27.3" x2="4.5" y2="23.3"/>
		<line class="st8" x1="17.3" y1="22.2" x2="12.4" y2="18.2"/>
	</g>
</g>
<polygon class="st0" points="47.2,24.8 50,33.5 34.9,33.6 35.4,33.2 46.9,24.3 "/>
<polygon class="st1" points="46.9,24.3 35.4,33.2 35.1,33 39.4,24 42.5,17.3 "/>
<polygon class="st2" points="42.5,17.3 39.4,24 23,14.7 29.7,10.3 37.3,16.3 "/>
<polygon class="st3" points="25.2,24.4 17.7,18 39.4,24 35.1,33 "/>
<polygon class="st4" points="39.4,24 17.7,18 17.3,17.7 23,14.7 "/>
<polygon class="st4" points="34.7,7.6 37.3,16.3 29.7,10.3 "/>
<polygon class="st5" points="30.5,0 34.7,7.6 29.7,10.3 26.9,5.3 "/>
<polygon class="st6" points="35.4,33.2 34.9,33.6 35.1,33 "/>
<polygon class="st4" points="35.1,33 34.9,33.6 10.9,33.6 11.2,32.9 25.2,24.4 "/>
<polygon class="st4" points="26.9,5.3 29.7,10.3 23,14.7 "/>
<polygon class="st7" points="25.2,24.4 11.2,32.9 17.3,17.7 17.7,18 "/>
<g>
	<polygon class="st8" points="34.9,33.6 10.9,33.6 11.2,32.9 17.3,17.7 23,14.7 26.9,5.3 30.5,0 34.7,7.6 37.3,16.3 42.5,17.3 
		46.9,24.3 47.2,24.8 50,33.5 	"/>
	<line class="st8" x1="26.9" y1="5.3" x2="29.7" y2="10.3"/>
	<polyline class="st8" points="42.5,17.3 39.4,24 35.1,33 34.9,33.6 	"/>
	<line class="st8" x1="23" y1="14.7" x2="39.4" y2="24"/>
	<line class="st8" x1="29.7" y1="10.3" x2="23" y2="14.7"/>
	<line class="st8" x1="29.7" y1="10.3" x2="34.7" y2="7.6"/>
	<polyline class="st8" points="47.2,24.1 46.9,24.3 35.4,33.2 34.9,33.6 	"/>
	<polyline class="st8" points="17.3,17.7 17.7,18 25.2,24.4 35.1,33 35.4,33.2 	"/>
	<polyline class="st8" points="10.9,33.1 11.2,32.9 25.2,24.4 25.2,24.4 	"/>
	<line class="st8" x1="39.4" y1="24" x2="17.7" y2="18"/>
	<line class="st8" x1="37.3" y1="16.3" x2="29.7" y2="10.3"/>
</g>
</svg>
